<svg version="1.1" xmlns="http://www.w3.org/2000/svg" viewBox="0 0 1148 939" width="1148" height="939">
  <!-- svg-source:excalidraw -->
  
  <defs>
    <style class="style-fonts">
      @font-face {
        font-family: "Virgil";
        src: url("https://excalidraw.com/Virgil.woff2");
      }
      @font-face {
        font-family: "Cascadia";
        src: url("https://excalidraw.com/Cascadia.woff2");
      }
    </style>
    
  </defs>
  <rect x="0" y="0" width="1148" height="939" fill="#ffffff"></rect><g stroke-linecap="round" transform="translate(341 10) rotate(0 370.5 123.5)"><path d="M256.37 6.37 C280.15 1.52, 311.2 1.27, 339.62 0.31 C368.04 -0.66, 398.67 -0.98, 426.88 0.6 C455.09 2.18, 482.69 6, 508.89 9.78 C535.09 13.56, 560.89 17.77, 584.07 23.28 C607.24 28.78, 629.03 35.89, 647.93 42.8 C666.83 49.7, 684.04 56.61, 697.46 64.72 C710.87 72.84, 721.04 82.28, 728.42 91.51 C735.79 100.73, 741.01 110.44, 741.69 120.06 C742.37 129.68, 738.69 139.87, 732.51 149.21 C726.34 158.55, 716.81 167.37, 704.65 176.1 C692.48 184.84, 677.25 194.17, 659.54 201.63 C641.83 209.09, 620.78 215.05, 598.38 220.86 C575.98 226.66, 551.11 232.42, 525.14 236.45 C499.16 240.49, 470.56 243.35, 442.53 245.06 C414.5 246.77, 385.3 247.03, 356.96 246.71 C328.62 246.4, 299.69 245.74, 272.46 243.18 C245.23 240.62, 218.44 235.96, 193.58 231.34 C168.72 226.72, 144.56 221.6, 123.28 215.49 C102.01 209.38, 82.27 202.43, 65.9 194.68 C49.54 186.92, 35.6 177.96, 25.07 168.98 C14.54 160, 6.71 150.44, 2.72 140.8 C-1.28 131.15, -1.76 120.46, 1.11 111.12 C3.98 101.79, 10.71 93.52, 19.94 84.79 C29.16 76.06, 41.33 66.99, 56.48 58.75 C71.62 50.51, 90.54 42.04, 110.79 35.34 C131.05 28.63, 152.16 23.72, 178 18.52 C203.83 13.31, 249.18 6.3, 265.81 4.12 C282.45 1.94, 275.94 3.23, 277.8 5.43 M359.11 -0.3 C386.37 -2.67, 417.01 -1.02, 444.74 1.15 C472.47 3.31, 499.68 8.3, 525.51 12.68 C551.33 17.05, 577.3 21.53, 599.71 27.39 C622.12 33.26, 642.26 40.78, 659.97 47.85 C677.69 54.93, 694.04 61.54, 706 69.85 C717.97 78.16, 725.91 88.51, 731.77 97.73 C737.63 106.94, 741.61 115.86, 741.15 125.15 C740.69 134.44, 736.4 144.07, 729.01 153.45 C721.62 162.83, 710.22 172.72, 696.79 181.42 C683.37 190.12, 667.1 198.33, 648.45 205.65 C629.79 212.96, 608.15 219.67, 584.87 225.31 C561.6 230.95, 535.42 236.05, 508.79 239.49 C482.16 242.94, 453.29 244.64, 425.09 245.97 C396.89 247.31, 367.71 248.24, 339.58 247.5 C311.46 246.75, 283.53 244.52, 256.33 241.52 C229.12 238.52, 200.75 234.32, 176.36 229.47 C151.97 224.63, 129.78 219.3, 109.98 212.46 C90.17 205.62, 72.74 196.7, 57.53 188.45 C42.32 180.21, 28.23 172.02, 18.72 163 C9.22 153.99, 3.22 143.66, 0.51 134.37 C-2.21 125.07, -1.59 116.65, 2.44 107.21 C6.48 97.77, 14.19 86.71, 24.72 77.73 C35.25 68.75, 49.13 60.99, 65.62 53.32 C82.1 45.65, 102.56 38.15, 123.64 31.71 C144.72 25.26, 167.15 19.09, 192.11 14.65 C217.07 10.21, 245.64 7.55, 273.37 5.07 C301.11 2.58, 344.22 0.31, 358.51 -0.26 C372.79 -0.83, 358.82 -0.6, 359.08 1.64" stroke="#1e1e1e" stroke-width="1" fill="none"></path></g><g transform="translate(658 42) rotate(0 46.62995910644531 12.5)"><text x="0" y="0" font-family="Virgil, Segoe UI Emoji" font-size="20px" fill="#1e1e1e" text-anchor="start" style="white-space: pre;" direction="ltr" dominant-baseline="text-before-edge">blockchain</text></g><g stroke-linecap="round" transform="translate(10 370) rotate(0 96 51.5)"><path d="M128.83 3.37 C141.12 4.98, 153.4 9.93, 162.76 14.75 C172.12 19.57, 180.07 26.05, 185 32.28 C189.92 38.52, 192.59 45.33, 192.3 52.17 C192.01 59, 188.83 66.81, 183.25 73.29 C177.66 79.76, 168.78 86.57, 158.81 91.02 C148.83 95.46, 136.12 98.19, 123.4 99.97 C110.69 101.75, 95.58 102.51, 82.51 101.7 C69.44 100.89, 56.04 98.78, 44.99 95.12 C33.93 91.46, 23.31 85.33, 16.17 79.74 C9.03 74.15, 4.3 68.22, 2.14 61.59 C-0.02 54.95, 0.11 46.72, 3.21 39.93 C6.31 33.14, 13.01 26.55, 20.76 20.84 C28.5 15.13, 38.44 9.04, 49.68 5.7 C60.91 2.35, 73.22 1, 88.18 0.79 C103.15 0.57, 129.57 2.87, 139.44 4.39 C149.32 5.92, 148.33 9, 147.43 9.94 M136.73 4.66 C148.7 6.49, 159.91 11.61, 168.47 16.93 C177.03 22.25, 184.09 29.97, 188.11 36.58 C192.13 43.19, 194.12 49.59, 192.59 56.59 C191.07 63.6, 185.94 72.54, 178.97 78.6 C171.99 84.67, 161.2 89, 150.74 92.99 C140.29 96.98, 128.69 100.97, 116.23 102.54 C103.76 104.11, 88.94 104.27, 75.97 102.41 C62.99 100.55, 48.91 95.89, 38.38 91.4 C27.86 86.92, 19.02 81.13, 12.81 75.49 C6.61 69.84, 2.24 64.39, 1.16 57.54 C0.08 50.69, 2.42 41.27, 6.33 34.38 C10.24 27.48, 15.99 21.01, 24.62 16.16 C33.24 11.32, 46.21 7.85, 58.08 5.3 C69.95 2.75, 82.8 0.95, 95.86 0.87 C108.91 0.78, 129.63 3.96, 136.41 4.8 C143.19 5.64, 137.03 5.05, 136.53 5.91" stroke="#1e1e1e" stroke-width="1" fill="none"></path></g><g transform="translate(49.71780088597427 409.0840007688928) rotate(0 56.39994812011719 12.5)"><text x="56.39994812011719" y="0" font-family="Virgil, Segoe UI Emoji" font-size="20px" fill="#1e1e1e" text-anchor="middle" style="white-space: pre;" direction="ltr" dominant-baseline="text-before-edge">Customer A</text></g><g mask="url(#mask-V2lf9GVxc36YZFMcPUMK1)" stroke-linecap="round"><g transform="translate(147.93581159740643 352.563466377175) rotate(0 89.79506589681071 -101.06407551058685)"><path d="M-1.17 -1.05 C29.1 -34.78, 150.52 -168.02, 180.76 -201.35 M0.41 1.01 C30.64 -32.55, 150.18 -169.16, 180.02 -203.14" stroke="#1e1e1e" stroke-width="1" fill="none"></path></g><g transform="translate(147.93581159740643 352.563466377175) rotate(0 89.79506589681071 -101.06407551058685)"><path d="M167.39 -174.53 C172.42 -181.54, 175.44 -188.17, 179.65 -204.85 M169.34 -175.59 C172.83 -183.76, 174.42 -191.32, 181.01 -203.6" stroke="#1e1e1e" stroke-width="1" fill="none"></path></g><g transform="translate(147.93581159740643 352.563466377175) rotate(0 89.79506589681071 -101.06407551058685)"><path d="M151.96 -188.06 C160.59 -191.85, 167.1 -195.43, 179.65 -204.85 M153.91 -189.12 C161.77 -193.28, 167.76 -196.99, 181.01 -203.6" stroke="#1e1e1e" stroke-width="1" fill="none"></path></g></g><mask id="mask-V2lf9GVxc36YZFMcPUMK1"><rect x="0" y="0" fill="#fff" width="428.3110695041744" height="654.5389619666087"></rect><rect x="231.72344665430603" y="239.0757185824582" fill="#000" width="12.79998779296875" height="25" opacity="1"></rect></mask><g transform="translate(231.72344665430603 239.0757185824582) rotate(0 6.007430839911109 12.423672284129978)"><text x="6.399993896484375" y="0" font-family="Virgil, Segoe UI Emoji" font-size="20px" fill="#1e1e1e" text-anchor="middle" style="white-space: pre;" direction="ltr" dominant-baseline="text-before-edge">4</text></g><g stroke-linecap="round" transform="translate(41 91) rotate(0 46.5 32)"><path d="M4.26 3.7 C4.26 3.7, 4.26 3.7, 4.26 3.7 M4.26 3.7 C4.26 3.7, 4.26 3.7, 4.26 3.7 M1.37 13.12 C3.4 9.02, 6.65 4.77, 10.56 2.55 M1.37 13.12 C4.07 9.25, 8.13 6.07, 10.56 2.55 M1.11 19.52 C4.93 14.33, 8.84 9.8, 16.86 1.4 M1.11 19.52 C4.27 15.64, 7.38 12.13, 16.86 1.4 M1.51 25.16 C9.75 14.29, 19.16 5.19, 22.5 1.01 M1.51 25.16 C6.48 19.02, 10.95 15.51, 22.5 1.01 M1.24 31.56 C7.91 23.89, 13.97 20.71, 27.49 1.37 M1.24 31.56 C8.22 23.27, 16.65 15.34, 27.49 1.37 M1.64 37.2 C13.36 20.82, 26.68 8.59, 33.13 0.97 M1.64 37.2 C12.18 23.7, 23.78 10.8, 33.13 0.97 M1.38 43.6 C13.8 28.1, 29.13 11.75, 38.12 1.33 M1.38 43.6 C10.83 32.82, 20.37 19.68, 38.12 1.33 M1.12 50 C11.11 37.71, 24.85 22.97, 43.76 0.94 M1.12 50 C12.1 37.91, 22.15 25.83, 43.76 0.94 M2.82 54.13 C10.44 42.33, 22.33 30.57, 48.75 1.3 M2.82 54.13 C17.41 38.74, 30.68 21.66, 48.75 1.3 M4.53 58.26 C17.74 44.54, 25.93 30.82, 54.39 0.91 M4.53 58.26 C23.22 37.76, 40.93 15.84, 54.39 0.91 M6.24 62.4 C27.28 36.38, 47.21 15.54, 59.38 1.27 M6.24 62.4 C19.35 46.25, 32.62 31.02, 59.38 1.27 M9.91 64.27 C25.23 49.31, 36.81 34.15, 65.02 0.87 M9.91 64.27 C24.13 47.24, 39.46 30.34, 65.02 0.87 M14.9 64.63 C33.16 44.68, 48.84 22.82, 70.01 1.23 M14.9 64.63 C28.69 46.95, 43.84 30.43, 70.01 1.23 M18.57 66.5 C40.69 41.81, 63.06 12.91, 75.65 0.84 M18.57 66.5 C36.37 45.75, 54.34 26.39, 75.65 0.84 M24.22 66.1 C41.08 47.58, 52.91 30.9, 79.98 1.95 M24.22 66.1 C44.94 42.07, 67.05 18.51, 79.98 1.95 M29.2 66.46 C46.96 46.43, 66.4 24.82, 84.97 2.31 M29.2 66.46 C48.45 44.66, 66.92 23.1, 84.97 2.31 M34.85 66.07 C53.37 42.57, 74.21 20.96, 88.64 4.18 M34.85 66.07 C51.19 46.6, 68.21 27.27, 88.64 4.18 M39.83 66.43 C59.94 44.59, 81.6 22.88, 91.66 6.81 M39.83 66.43 C51.03 53.7, 61.93 42.76, 91.66 6.81 M45.48 66.03 C58.79 50.97, 73.45 34.44, 94.03 10.18 M45.48 66.03 C60.81 47.56, 77.44 30.32, 94.03 10.18 M50.46 66.39 C64.02 52.7, 74.87 41.21, 93.76 16.58 M50.46 66.39 C61.95 53.18, 72.69 40.93, 93.76 16.58 M56.11 66 C69.05 50.68, 84.09 34.57, 93.5 22.98 M56.11 66 C67.85 53.19, 77.22 41.79, 93.5 22.98 M61.09 66.36 C66.67 59.57, 75.78 49.9, 93.9 28.62 M61.09 66.36 C74.35 52.08, 85.74 37.49, 93.9 28.62 M66.08 66.72 C74.31 56.03, 86.84 43.28, 93.64 35.02 M66.08 66.72 C73.69 58.88, 79.44 51.25, 93.64 35.02 M71.72 66.32 C79.3 55.45, 86.05 49.66, 93.37 41.42 M71.72 66.32 C75.69 61.43, 80.28 56.74, 93.37 41.42 M78.02 65.17 C82.43 59.58, 85.16 59.04, 93.77 47.06 M78.02 65.17 C82.77 59.76, 86.75 54.93, 93.77 47.06 M84.98 63.27 C86.5 60.28, 88.87 57.25, 94.16 52.7 M84.98 63.27 C87.85 59.54, 92.07 55.73, 94.16 52.7" stroke="#b2f2bb" stroke-width="0.5" fill="none"></path><path d="M16 0 M16 0 C32.64 0.78, 47.3 -0.9, 77 0 M16 0 C41.14 -0.65, 65.21 -1.49, 77 0 M77 0 C85.86 0.48, 93.96 6.13, 93 16 M77 0 C89.71 1.38, 91.87 6, 93 16 M93 16 C92.13 27.8, 95.11 41.99, 93 48 M93 16 C92.72 23.21, 93.97 29.9, 93 48 M93 48 C91.12 56.94, 86.08 62.11, 77 64 M93 48 C91.59 60.57, 87.05 63.85, 77 64 M77 64 C61.57 65.53, 43.35 62.14, 16 64 M77 64 C59.39 64.26, 40.16 63.65, 16 64 M16 64 C6.25 65.05, 0.59 60.39, 0 48 M16 64 C6.55 63.62, 1.91 58.34, 0 48 M0 48 C1.38 36.03, -0.97 23.32, 0 16 M0 48 C-0.52 36.62, 0.14 23.52, 0 16 M0 16 C0.15 6.51, 3.55 -0.93, 16 0 M0 16 C-0.49 4.94, 7.45 1.72, 16 0" stroke="#1e1e1e" stroke-width="1" fill="none"></path></g><g transform="translate(156 116) rotate(0 12.529983520507812 12.5)"><text x="0" y="0" font-family="Virgil, Segoe UI Emoji" font-size="20px" fill="#1e1e1e" text-anchor="start" style="white-space: pre;" direction="ltr" dominant-baseline="text-before-edge">bill</text></g><g stroke-linecap="round" transform="translate(43.5 178) rotate(0 46.5 32)"><path d="M4.26 3.7 C4.26 3.7, 4.26 3.7, 4.26 3.7 M4.26 3.7 C4.26 3.7, 4.26 3.7, 4.26 3.7 M1.37 13.12 C4.33 10.36, 4.05 8.72, 10.56 2.55 M1.37 13.12 C3.68 10.78, 6.66 6.91, 10.56 2.55 M1.11 19.52 C3.1 14.45, 6.73 12.51, 16.86 1.4 M1.11 19.52 C4.32 15.9, 8.33 12.4, 16.86 1.4 M1.51 25.16 C10.54 17.35, 17.82 7.54, 22.5 1.01 M1.51 25.16 C7.53 17.66, 14.04 11.48, 22.5 1.01 M1.24 31.56 C8.63 22.06, 18.03 13.18, 27.49 1.37 M1.24 31.56 C7.54 23.5, 14.16 17.84, 27.49 1.37 M1.64 37.2 C9.14 31.34, 16.8 20.05, 33.13 0.97 M1.64 37.2 C10.79 26.51, 21.86 15.32, 33.13 0.97 M1.38 43.6 C14.71 29.18, 26.63 17.88, 38.12 1.33 M1.38 43.6 C8.34 35.51, 16.53 26.41, 38.12 1.33 M1.12 50 C13.73 35.74, 28.52 19.58, 43.76 0.94 M1.12 50 C9.54 39.54, 18.93 28.75, 43.76 0.94 M2.82 54.13 C12.7 43.93, 21.67 32.28, 48.75 1.3 M2.82 54.13 C15.8 37.86, 30.16 22.01, 48.75 1.3 M4.53 58.26 C18.52 44.35, 29.85 29.92, 54.39 0.91 M4.53 58.26 C17.55 42.68, 30.24 28.04, 54.39 0.91 M6.24 62.4 C26.69 41.18, 44.97 17.75, 59.38 1.27 M6.24 62.4 C19.19 46.5, 32.55 32.6, 59.38 1.27 M9.91 64.27 C23.93 44.43, 43.23 25.92, 65.02 0.87 M9.91 64.27 C22.96 49.56, 36.04 34.57, 65.02 0.87 M14.9 64.63 C25.54 50.22, 41.49 34.38, 70.01 1.23 M14.9 64.63 C28.22 48.97, 41.8 32.97, 70.01 1.23 M18.57 66.5 C39.36 41.03, 60.56 16.67, 75.65 0.84 M18.57 66.5 C40.37 42.18, 62.47 15.27, 75.65 0.84 M24.22 66.1 C40.18 49.93, 53.71 32.54, 79.98 1.95 M24.22 66.1 C44.88 41.73, 65.39 15.61, 79.98 1.95 M29.2 66.46 C48.75 46.65, 64.07 25.24, 84.97 2.31 M29.2 66.46 C50.73 39.89, 74.51 14.96, 84.97 2.31 M34.85 66.07 C45.22 52.1, 59.7 37.45, 88.64 4.18 M34.85 66.07 C45.53 53.12, 58.39 40.71, 88.64 4.18 M39.83 66.43 C55.27 49.43, 72 29.69, 91.66 6.81 M39.83 66.43 C51.38 54.06, 61.09 40.43, 91.66 6.81 M45.48 66.03 C56.36 55.38, 67.36 41.19, 94.03 10.18 M45.48 66.03 C63.44 43.98, 83.33 23.06, 94.03 10.18 M50.46 66.39 C62.03 55.24, 70.55 44.03, 93.76 16.58 M50.46 66.39 C65.41 48.83, 78.81 32.88, 93.76 16.58 M56.11 66 C64.51 53.98, 75.1 41.32, 93.5 22.98 M56.11 66 C64.58 57.82, 72.12 48.2, 93.5 22.98 M61.09 66.36 C73.03 54.49, 84.82 39.15, 93.9 28.62 M61.09 66.36 C74.04 51.13, 87.11 36.76, 93.9 28.62 M66.08 66.72 C72.97 59.23, 79.46 51.44, 93.64 35.02 M66.08 66.72 C75.75 55.78, 85.64 45.35, 93.64 35.02 M71.72 66.32 C78.08 57.39, 86.05 48.19, 93.37 41.42 M71.72 66.32 C79.27 57.35, 87.68 49.05, 93.37 41.42 M78.02 65.17 C82.6 58.25, 90.83 50.77, 93.77 47.06 M78.02 65.17 C81.63 61.42, 86.29 55.83, 93.77 47.06 M84.98 63.27 C86.63 60.06, 89.73 58.67, 94.16 52.7 M84.98 63.27 C88.31 60.4, 91.11 55.93, 94.16 52.7" stroke="#a5d8ff" stroke-width="0.5" fill="none"></path><path d="M16 0 M16 0 C32.02 -1.7, 46.72 -0.49, 77 0 M16 0 C33.62 0.45, 51.49 0.08, 77 0 M77 0 C86.48 0.64, 92.68 3.39, 93 16 M77 0 C87.73 0.59, 92.26 6.04, 93 16 M93 16 C94.41 22.37, 94.13 27.94, 93 48 M93 16 C93.09 24.79, 92.74 34.44, 93 48 M93 48 C93 57.76, 87.26 62.02, 77 64 M93 48 C93.19 57.12, 89.92 62.05, 77 64 M77 64 C58.23 65.85, 41.46 63.33, 16 64 M77 64 C59.28 63.45, 39.74 64.11, 16 64 M16 64 C4.37 62.63, 0.3 57.55, 0 48 M16 64 C3.25 65.34, -0.46 57.16, 0 48 M0 48 C-0.81 37.47, -0.09 24.87, 0 16 M0 48 C-0.66 39.96, -0.52 33.11, 0 16 M0 16 C-0.16 5.37, 4.84 -1.09, 16 0 M0 16 C-0.47 6.32, 6.98 0.19, 16 0" stroke="#1e1e1e" stroke-width="1" fill="none"></path></g><g transform="translate(156 206) rotate(0 45.06995391845703 12.5)"><text x="0" y="0" font-family="Virgil, Segoe UI Emoji" font-size="20px" fill="#1e1e1e" text-anchor="start" style="white-space: pre;" direction="ltr" dominant-baseline="text-before-edge">signature</text></g><g stroke-linecap="round" transform="translate(245 778) rotate(0 46.5 32)"><path d="M4.26 3.7 C4.26 3.7, 4.26 3.7, 4.26 3.7 M4.26 3.7 C4.26 3.7, 4.26 3.7, 4.26 3.7 M1.37 13.12 C2.93 9.9, 8.25 7.22, 10.56 2.55 M1.37 13.12 C3.72 10.1, 5.82 8.4, 10.56 2.55 M1.11 19.52 C7.66 14.66, 10.54 7.53, 16.86 1.4 M1.11 19.52 C4.41 14.08, 9.39 9.32, 16.86 1.4 M1.51 25.16 C7.6 19.18, 16.35 10.05, 22.5 1.01 M1.51 25.16 C9.17 15.96, 17.51 6.08, 22.5 1.01 M1.24 31.56 C6.52 22.34, 16 17.12, 27.49 1.37 M1.24 31.56 C10.34 20.51, 20.2 9.69, 27.49 1.37 M1.64 37.2 C10.79 26.85, 18.8 20.06, 33.13 0.97 M1.64 37.2 C12.02 27.59, 19.97 16.77, 33.13 0.97 M1.38 43.6 C8.35 31.49, 19.59 21.69, 38.12 1.33 M1.38 43.6 C9.45 34.2, 18.15 23.79, 38.12 1.33 M1.12 50 C12.35 35.78, 26.43 20.12, 43.76 0.94 M1.12 50 C11.56 35.93, 22.9 23, 43.76 0.94 M2.82 54.13 C16.5 38.67, 25.43 27.77, 48.75 1.3 M2.82 54.13 C19.12 36.6, 35.92 18.25, 48.75 1.3 M4.53 58.26 C14.47 45.16, 25.58 33.62, 54.39 0.91 M4.53 58.26 C16.02 44.1, 27.81 31.71, 54.39 0.91 M6.24 62.4 C24.56 41.73, 45.73 16.92, 59.38 1.27 M6.24 62.4 C26.31 38.61, 47.33 15.39, 59.38 1.27 M9.91 64.27 C20.92 48.75, 34.47 37.2, 65.02 0.87 M9.91 64.27 C30.85 40.46, 52.45 15.87, 65.02 0.87 M14.9 64.63 C35.22 42.07, 52.03 17.95, 70.01 1.23 M14.9 64.63 C34.21 41.57, 54.17 18.83, 70.01 1.23 M18.57 66.5 C33.6 51.77, 44.68 37.56, 75.65 0.84 M18.57 66.5 C36.48 46.08, 53.71 26.2, 75.65 0.84 M24.22 66.1 C47.7 42.12, 68.71 17.77, 79.98 1.95 M24.22 66.1 C42.94 44.47, 63.57 20.51, 79.98 1.95 M29.2 66.46 C43.98 52.62, 53.97 37.73, 84.97 2.31 M29.2 66.46 C43.17 49.31, 57.73 33.67, 84.97 2.31 M34.85 66.07 C54.15 41.55, 75.51 19.99, 88.64 4.18 M34.85 66.07 C52.02 45.27, 69.34 26.88, 88.64 4.18 M39.83 66.43 C59.08 44.32, 78.19 23.63, 91.66 6.81 M39.83 66.43 C55.02 50.99, 67.9 34.07, 91.66 6.81 M45.48 66.03 C58.48 47.73, 76.78 30.17, 94.03 10.18 M45.48 66.03 C61.6 48.06, 76.44 31.65, 94.03 10.18 M50.46 66.39 C67.11 49.65, 81.13 31.29, 93.76 16.58 M50.46 66.39 C62.86 52.41, 77.12 37.95, 93.76 16.58 M56.11 66 C71.16 49.19, 86.14 31.23, 93.5 22.98 M56.11 66 C67.51 53.04, 76.23 40.57, 93.5 22.98 M61.09 66.36 C74.58 52.02, 84.61 38.52, 93.9 28.62 M61.09 66.36 C67.44 59.15, 75.36 50.64, 93.9 28.62 M66.08 66.72 C74.97 54.49, 85.51 44.89, 93.64 35.02 M66.08 66.72 C70.71 60.39, 77.2 54.46, 93.64 35.02 M71.72 66.32 C78.4 58.11, 88.33 48, 93.37 41.42 M71.72 66.32 C77 61.12, 80.54 55.87, 93.37 41.42 M78.02 65.17 C79.47 60.61, 82.52 56.07, 93.77 47.06 M78.02 65.17 C81.51 62.22, 85.43 57.92, 93.77 47.06 M84.98 63.27 C88.43 59.58, 91.18 56.65, 94.16 52.7 M84.98 63.27 C87.58 60.3, 91.15 56.3, 94.16 52.7" stroke="#b2f2bb" stroke-width="0.5" fill="none"></path><path d="M16 0 M16 0 C40.64 -2.27, 63.05 -1.78, 77 0 M16 0 C30.67 -0.66, 44.78 0.55, 77 0 M77 0 C87.58 1.08, 91.38 6.67, 93 16 M77 0 C87.38 -1.2, 94.93 5.81, 93 16 M93 16 C92.81 24.4, 94.71 33.54, 93 48 M93 16 C92.45 22.76, 92.98 32.43, 93 48 M93 48 C94.5 58.94, 86.46 64.59, 77 64 M93 48 C94.2 59.9, 88.05 65.44, 77 64 M77 64 C57.4 62.29, 38.38 64.56, 16 64 M77 64 C59.88 64.36, 42.94 63.89, 16 64 M16 64 C7.08 62.87, 0.5 57.63, 0 48 M16 64 C3.38 66.04, -0.55 57.65, 0 48 M0 48 C1.19 39.33, -1.64 29.59, 0 16 M0 48 C-0.28 42, 0.8 34.59, 0 16 M0 16 C0.29 4.48, 6.88 1.54, 16 0 M0 16 C2.27 3.11, 3.05 2.27, 16 0" stroke="#1e1e1e" stroke-width="1" fill="none"></path></g><g transform="translate(360 803) rotate(0 12.529983520507812 12.5)"><text x="0" y="0" font-family="Virgil, Segoe UI Emoji" font-size="20px" fill="#1e1e1e" text-anchor="start" style="white-space: pre;" direction="ltr" dominant-baseline="text-before-edge">bill</text></g><g stroke-linecap="round" transform="translate(247.5 865) rotate(0 46.5 32)"><path d="M4.26 3.7 C4.26 3.7, 4.26 3.7, 4.26 3.7 M4.26 3.7 C4.26 3.7, 4.26 3.7, 4.26 3.7 M1.37 13.12 C6.16 9.78, 7.61 5.03, 10.56 2.55 M1.37 13.12 C3.69 10.86, 6.9 7.95, 10.56 2.55 M1.11 19.52 C5.27 13.67, 12.72 4.93, 16.86 1.4 M1.11 19.52 C5.19 14.36, 9.38 9.6, 16.86 1.4 M1.51 25.16 C8.98 18.2, 16.04 10.63, 22.5 1.01 M1.51 25.16 C7.69 17.51, 14.47 9.93, 22.5 1.01 M1.24 31.56 C12.53 21.75, 22.51 10.53, 27.49 1.37 M1.24 31.56 C8.87 23.06, 15.71 14.94, 27.49 1.37 M1.64 37.2 C10 30.07, 14.88 20.08, 33.13 0.97 M1.64 37.2 C7.84 29.53, 14.19 21.96, 33.13 0.97 M1.38 43.6 C13.92 29.24, 23.54 17.19, 38.12 1.33 M1.38 43.6 C9.66 33.47, 19.26 23.9, 38.12 1.33 M1.12 50 C17.59 31.15, 31.84 15.8, 43.76 0.94 M1.12 50 C14.48 33.93, 28.02 18.73, 43.76 0.94 M2.82 54.13 C14.58 39.88, 30.9 21.05, 48.75 1.3 M2.82 54.13 C15.77 40.5, 26.4 25.21, 48.75 1.3 M4.53 58.26 C22.47 37.62, 40.41 16.03, 54.39 0.91 M4.53 58.26 C19.65 41.6, 35.28 24.29, 54.39 0.91 M6.24 62.4 C27.94 37.73, 47.46 15.01, 59.38 1.27 M6.24 62.4 C22.29 44.34, 36.61 27.63, 59.38 1.27 M9.91 64.27 C30.78 42.68, 50.45 20.45, 65.02 0.87 M9.91 64.27 C25.05 47.24, 41.37 29.67, 65.02 0.87 M14.9 64.63 C24.24 49.79, 38.76 40.21, 70.01 1.23 M14.9 64.63 C33.27 43.72, 50.46 22.03, 70.01 1.23 M18.57 66.5 C30.73 52.06, 43.32 37.2, 75.65 0.84 M18.57 66.5 C34.18 48.44, 52.13 28.4, 75.65 0.84 M24.22 66.1 C37.11 52.61, 50.65 36.15, 79.98 1.95 M24.22 66.1 C46.71 40.21, 66.22 16.24, 79.98 1.95 M29.2 66.46 C48.94 42.6, 70.65 17.4, 84.97 2.31 M29.2 66.46 C40.3 54.21, 52.7 41.29, 84.97 2.31 M34.85 66.07 C52.15 47.63, 68.37 28.52, 88.64 4.18 M34.85 66.07 C51.99 47.44, 69.97 26.89, 88.64 4.18 M39.83 66.43 C53.45 51.83, 63.8 39.05, 91.66 6.81 M39.83 66.43 C50.8 52.54, 63.7 37.92, 91.66 6.81 M45.48 66.03 C58.79 51.5, 69.05 38.61, 94.03 10.18 M45.48 66.03 C55.41 55.05, 66.55 43.11, 94.03 10.18 M50.46 66.39 C60.96 54.02, 73.66 36.97, 93.76 16.58 M50.46 66.39 C61.47 55.39, 71.34 43.82, 93.76 16.58 M56.11 66 C66.32 53.83, 75.49 43.45, 93.5 22.98 M56.11 66 C69.84 48.07, 86.37 30.83, 93.5 22.98 M61.09 66.36 C71.4 53.33, 83.29 40.15, 93.9 28.62 M61.09 66.36 C73.39 53.23, 84.33 39.41, 93.9 28.62 M66.08 66.72 C77.8 54.12, 85.66 42.59, 93.64 35.02 M66.08 66.72 C72.16 60.45, 78.4 52.33, 93.64 35.02 M71.72 66.32 C80.25 57.13, 83.21 52.61, 93.37 41.42 M71.72 66.32 C75.36 61.6, 79.58 56.57, 93.37 41.42 M78.02 65.17 C80.2 59.01, 83.79 57.66, 93.77 47.06 M78.02 65.17 C83.04 60.53, 86.4 56.33, 93.77 47.06 M84.98 63.27 C87.31 61.09, 89.27 59.45, 94.16 52.7 M84.98 63.27 C88.76 59.17, 91.87 55.26, 94.16 52.7" stroke="#a5d8ff" stroke-width="0.5" fill="none"></path><path d="M16 0 M16 0 C40.72 -0.73, 61.9 -0.79, 77 0 M16 0 C35.66 1.03, 56.75 0.81, 77 0 M77 0 C86.04 1.33, 92.75 4.29, 93 16 M77 0 C89.6 0.47, 92.92 6.06, 93 16 M93 16 C94.57 25.28, 91.79 36.43, 93 48 M93 16 C93.02 25.12, 93.63 32.45, 93 48 M93 48 C91.8 59.26, 88.71 65.08, 77 64 M93 48 C93.38 60.11, 88.05 62.5, 77 64 M77 64 C63.1 64.61, 48.6 62, 16 64 M77 64 C62.14 64.79, 49.8 63.92, 16 64 M16 64 C5.83 62.96, -1.7 60.44, 0 48 M16 64 C4.79 62.98, -0.53 59.1, 0 48 M0 48 C-1.78 36.12, -1.99 26.43, 0 16 M0 48 C0.97 39.56, 0.19 30.57, 0 16 M0 16 C1.55 6.88, 7.31 -1.93, 16 0 M0 16 C-2.28 7.6, 3.66 1.91, 16 0" stroke="#1e1e1e" stroke-width="1" fill="none"></path></g><g transform="translate(360 893) rotate(0 45.06995391845703 12.5)"><text x="0" y="0" font-family="Virgil, Segoe UI Emoji" font-size="20px" fill="#1e1e1e" text-anchor="start" style="white-space: pre;" direction="ltr" dominant-baseline="text-before-edge">signature</text></g><g mask="url(#mask-5xh_6ASBig7GmCT3QQrfC)" stroke-linecap="round"><g transform="translate(411.19527937208557 207.80271776255972) rotate(0 -98.11043424644643 98.09098510761254)"><path d="M0.85 -0.11 C-31.92 32.74, -163.16 163.62, -195.86 196.37 M-0.16 -1.21 C-33.2 31.82, -164.41 164.33, -197.07 197.39" stroke="#1e1e1e" stroke-width="1" fill="none"></path></g><g transform="translate(411.19527937208557 207.80271776255972) rotate(0 -98.11043424644643 98.09098510761254)"><path d="M-184.72 169.29 C-190.88 180.07, -195.41 189.36, -196.38 197.01 M-185.25 169.49 C-188.58 180.52, -193.97 191.28, -198.06 197.1" stroke="#1e1e1e" stroke-width="1" fill="none"></path></g><g transform="translate(411.19527937208557 207.80271776255972) rotate(0 -98.11043424644643 98.09098510761254)"><path d="M-170.13 183.72 C-181.48 189.38, -191.3 193.45, -196.38 197.01 M-170.66 183.92 C-179.43 189.6, -190.25 194.99, -198.06 197.1" stroke="#1e1e1e" stroke-width="1" fill="none"></path></g></g><mask id="mask-5xh_6ASBig7GmCT3QQrfC"><rect x="0" y="0" fill="#fff" width="706.5447114221338" height="505.1557337310701"></rect><rect x="307.34057067128015" y="293.9792257468149" fill="#000" width="12.3599853515625" height="25" opacity="1"></rect></mask><g transform="translate(307.34057067128015 293.9792257468149) rotate(0 5.744274454358987 11.914477123357358)"><text x="6.17999267578125" y="0" font-family="Virgil, Segoe UI Emoji" font-size="20px" fill="#1e1e1e" text-anchor="middle" style="white-space: pre;" direction="ltr" dominant-baseline="text-before-edge">5</text></g><g transform="translate(396.0936588069625 289.3456710674493) rotate(0 31.199974060058594 12.5)"><text x="31.199974060058594" y="0" font-family="Virgil, Segoe UI Emoji" font-size="20px" fill="#1971c2" text-anchor="middle" style="white-space: pre;" direction="ltr" dominant-baseline="text-before-edge">token </text></g><g stroke-linecap="round" transform="translate(537 463) rotate(0 136 118)"><path d="M76.16 12.13 C88.58 4.91, 106.66 3.01, 121.87 1.67 C137.08 0.32, 152.43 0.92, 167.43 4.04 C182.44 7.17, 198.73 13.11, 211.9 20.42 C225.08 27.74, 237.25 37.29, 246.5 47.93 C255.74 58.56, 263.24 71.33, 267.36 84.2 C271.48 97.08, 272.48 111.56, 271.24 125.19 C270 138.83, 266.21 153.73, 259.92 166 C253.63 178.28, 244.09 189.18, 233.49 198.83 C222.88 208.49, 209.92 217.83, 196.29 223.92 C182.66 230.01, 167.13 234.04, 151.72 235.36 C136.31 236.67, 119.15 235.03, 103.83 231.8 C88.51 228.58, 72.87 223.45, 59.81 215.99 C46.76 208.52, 34.49 197.77, 25.49 187.01 C16.48 176.26, 9.96 164.41, 5.8 151.46 C1.64 138.51, -0.35 122.76, 0.53 109.32 C1.41 95.87, 4.73 83, 11.08 70.8 C17.43 58.59, 27.4 46.08, 38.63 36.08 C49.86 26.09, 71.06 14.92, 78.47 10.81 C85.88 6.7, 81.93 9.57, 83.09 11.43 M190.53 9.98 C204.91 13.31, 217.2 23.92, 228.08 32.95 C238.96 41.99, 248.66 52.56, 255.8 64.18 C262.94 75.8, 268.6 89.35, 270.9 102.66 C273.2 115.97, 272.94 130.67, 269.61 144.05 C266.27 157.43, 259.42 171.33, 250.91 182.93 C242.39 194.53, 231.14 205.87, 218.5 213.66 C205.86 221.45, 189.85 225.93, 175.06 229.66 C160.28 233.4, 145.08 236.39, 129.78 236.07 C114.48 235.76, 97.58 233, 83.26 227.76 C68.94 222.52, 55.15 214.22, 43.87 204.62 C32.59 195.03, 22.49 182.38, 15.56 170.21 C8.64 158.03, 4.54 144.68, 2.34 131.59 C0.13 118.49, -0.88 104.46, 2.34 91.65 C5.56 78.84, 13.06 65.88, 21.65 54.73 C30.25 43.59, 41.26 33.07, 53.9 24.8 C66.53 16.53, 82.36 9.32, 97.47 5.09 C112.58 0.86, 129.17 -1.26, 144.55 -0.58 C159.93 0.1, 182.56 7.13, 189.73 9.19 C196.9 11.25, 188.32 9.87, 187.56 11.79" stroke="#f08c00" stroke-width="1" fill="none"></path></g><g transform="translate(613.2435195677116 556.0613998199874) rotate(0 59.58995819091797 25)"><text x="59.58995819091797" y="0" font-family="Virgil, Segoe UI Emoji" font-size="20px" fill="#1e1e1e" text-anchor="middle" style="white-space: pre;" direction="ltr" dominant-baseline="text-before-edge">acceptance </text><text x="59.58995819091797" y="25" font-family="Virgil, Segoe UI Emoji" font-size="20px" fill="#1e1e1e" text-anchor="middle" style="white-space: pre;" direction="ltr" dominant-baseline="text-before-edge">company</text></g><g mask="url(#mask-AwhfDAlFhQKzzPmPEMBbQ)" stroke-linecap="round"><g transform="translate(218.99979152632505 421.9999296149972) rotate(0 155.12386123609068 52.585936696625)"><path d="M-1.05 0.33 C50.8 17.68, 259.47 87.14, 311.29 104.46 M0.6 -0.54 C52.31 16.93, 258.56 88.09, 310.49 105.71" stroke="#1e1e1e" stroke-width="1" fill="none"></path></g><g transform="translate(218.99979152632505 421.9999296149972) rotate(0 155.12386123609068 52.585936696625)"><path d="M281.05 106.74 C289.04 104.46, 298.19 105.41, 310.35 106.79 M281.32 106.65 C290.86 105.79, 301.23 106.03, 309.56 104.95" stroke="#1e1e1e" stroke-width="1" fill="none"></path></g><g transform="translate(218.99979152632505 421.9999296149972) rotate(0 155.12386123609068 52.585936696625)"><path d="M287.7 87.32 C293.66 91.11, 300.7 98.19, 310.35 106.79 M287.97 87.24 C295.2 93.17, 303.22 100.26, 309.56 104.95" stroke="#1e1e1e" stroke-width="1" fill="none"></path></g></g><mask id="mask-AwhfDAlFhQKzzPmPEMBbQ"><rect x="0" y="0" fill="#fff" width="630.0228411080519" height="627.0077116281204"></rect><rect x="368.1113224207042" y="462.0038206215588" fill="#000" width="12.79998779296875" height="25" opacity="1"></rect></mask><g transform="translate(368.11132242070414 462.0038206215588) rotate(0 6.012330341711589 12.582045690063381)"><text x="6.399993896484375" y="0" font-family="Virgil, Segoe UI Emoji" font-size="20px" fill="#1e1e1e" text-anchor="middle" style="white-space: pre;" direction="ltr" dominant-baseline="text-before-edge">6</text></g><g transform="translate(274 552) rotate(0 54.58995819091797 12.5)"><text x="0" y="0" font-family="Virgil, Segoe UI Emoji" font-size="20px" fill="#1e1e1e" text-anchor="start" style="white-space: pre;" direction="ltr" dominant-baseline="text-before-edge">acceptance</text></g><g mask="url(#mask-_L5jznMDpIXlNDSlUY3te)" stroke-linecap="round"><g transform="translate(521.0000814828086 584.0000273179359) rotate(0 -172.91462749557428 -58.09512597400044)"><path d="M-0.42 -1.12 C-58.29 -20.56, -289.53 -98.01, -347.39 -117.09 M1.57 0.9 C-55.93 -18.37, -287.36 -96.29, -345.18 -116.05" stroke="#1e1e1e" stroke-width="1" fill="none"></path></g><g transform="translate(521.0000814828086 584.0000273179359) rotate(0 -172.91462749557428 -58.09512597400044)"><path d="M-317.06 -118.3 C-325.4 -118.58, -331.54 -116.44, -345.03 -116.82 M-315.55 -115.86 C-326.35 -115.41, -336.52 -116.53, -344.68 -116.6" stroke="#1e1e1e" stroke-width="1" fill="none"></path></g><g transform="translate(521.0000814828086 584.0000273179359) rotate(0 -172.91462749557428 -58.09512597400044)"><path d="M-323.64 -98.86 C-330.01 -104.72, -334.26 -108.18, -345.03 -116.82 M-322.13 -96.43 C-330.45 -102.85, -338.31 -110.8, -344.68 -116.6" stroke="#1e1e1e" stroke-width="1" fill="none"></path></g></g><mask id="mask-_L5jznMDpIXlNDSlUY3te"><rect x="0" y="0" fill="#fff" width="967.4489710421827" height="800.1505220835063"></rect><rect x="340.1256428066372" y="513.4247799351505" fill="#000" width="15.29998779296875" height="25" opacity="1"></rect></mask><g transform="translate(340.1256428066372 513.4247799351506) rotate(0 7.959811180597114 12.48012140878484)"><text x="7.649993896484375" y="0" font-family="Virgil, Segoe UI Emoji" font-size="20px" fill="#1e1e1e" text-anchor="middle" style="white-space: pre;" direction="ltr" dominant-baseline="text-before-edge">8</text></g><g stroke-linecap="round" transform="translate(946 408.5) rotate(0 96 51.5)"><path d="M50.83 6.51 C61.02 2.66, 76.55 -0.08, 89.64 -0.61 C102.73 -1.13, 117.16 0.83, 129.37 3.35 C141.58 5.87, 153.58 9.71, 162.89 14.51 C172.21 19.3, 180.43 25.5, 185.27 32.12 C190.12 38.75, 192.57 47.17, 191.96 54.28 C191.34 61.39, 187.36 68.64, 181.59 74.76 C175.83 80.89, 167.15 86.63, 157.37 91.04 C147.58 95.45, 135.35 99.41, 122.88 101.21 C110.42 103.01, 95.59 102.94, 82.57 101.86 C69.56 100.77, 55.92 98.35, 44.8 94.7 C33.67 91.05, 23.15 85.67, 15.81 79.97 C8.48 74.28, 3.08 67.4, 0.81 60.53 C-1.47 53.66, -1.23 45.46, 2.19 38.77 C5.61 32.08, 12.32 26.2, 21.33 20.37 C30.34 14.54, 49.61 6.43, 56.26 3.79 C62.9 1.15, 60.69 3.53, 61.2 4.53 M141.42 5.57 C152.93 8.08, 163.51 15.64, 171.45 21.1 C179.38 26.56, 185.61 31.94, 189.01 38.33 C192.41 44.71, 194 52.36, 191.87 59.42 C189.75 66.47, 183.84 74.75, 176.27 80.66 C168.69 86.57, 157.44 91.45, 146.42 94.87 C135.4 98.3, 122.97 100.13, 110.15 101.21 C97.34 102.28, 82.26 103.05, 69.51 101.33 C56.76 99.62, 43.7 95.59, 33.65 90.9 C23.6 86.22, 14.62 79.51, 9.21 73.22 C3.8 66.93, 1.59 59.96, 1.19 53.17 C0.8 46.39, 2.16 38.8, 6.85 32.48 C11.53 26.17, 19.89 20.16, 29.31 15.29 C38.74 10.42, 50.91 5.6, 63.41 3.28 C75.9 0.96, 91.52 0.73, 104.28 1.37 C117.03 2.01, 133.81 6.19, 139.94 7.12 C146.08 8.06, 141.53 6.3, 141.09 6.97" stroke="#1e1e1e" stroke-width="1" fill="none"></path></g><g transform="translate(985.0078018015015 447.5840007688928) rotate(0 57.109947204589844 12.5)"><text x="57.109947204589844" y="0" font-family="Virgil, Segoe UI Emoji" font-size="20px" fill="#1e1e1e" text-anchor="middle" style="white-space: pre;" direction="ltr" dominant-baseline="text-before-edge">Customer B</text></g><g mask="url(#mask-bEFpy0tzL28aiejIsQMBf)" stroke-linecap="round"><g transform="translate(1030 394) rotate(0 -33.331488635577216 -76.75169744454325)"><path d="M-0.31 0.05 C-11.56 -25.59, -56.33 -128.06, -67.29 -153.56 M1.73 -0.96 C-9.73 -26.48, -57.04 -127.2, -68.39 -152.31" stroke="#1e1e1e" stroke-width="1" fill="none"></path></g><g transform="translate(1030 394) rotate(0 -33.331488635577216 -76.75169744454325)"><path d="M-47.17 -131.51 C-54.99 -136.34, -60.73 -145.03, -67.81 -152.63 M-46.42 -130.2 C-55.89 -138.06, -62.21 -146.52, -68.05 -151.99" stroke="#1e1e1e" stroke-width="1" fill="none"></path></g><g transform="translate(1030 394) rotate(0 -33.331488635577216 -76.75169744454325)"><path d="M-65.8 -122.9 C-67.69 -130.44, -67.49 -141.87, -67.81 -152.63 M-65.05 -121.6 C-67.73 -132.62, -67.27 -144.21, -68.05 -151.99" stroke="#1e1e1e" stroke-width="1" fill="none"></path></g></g><mask id="mask-bEFpy0tzL28aiejIsQMBf"><rect x="0" y="0" fill="#fff" width="1197" height="647"></rect><rect x="993.7900009155273" y="305" fill="#000" width="5.4199981689453125" height="25" opacity="1"></rect></mask><g transform="translate(993.7900009155273 305) rotate(0 2.8785104488954403 12.248302555456746)"><text x="2.7099990844726562" y="0" font-family="Virgil, Segoe UI Emoji" font-size="20px" fill="#1e1e1e" text-anchor="middle" style="white-space: pre;" direction="ltr" dominant-baseline="text-before-edge">1</text></g><g transform="translate(1020 307) rotate(0 51.79994201660156 12.5)"><text x="0" y="0" font-family="Virgil, Segoe UI Emoji" font-size="20px" fill="#1e1e1e" text-anchor="start" style="white-space: pre;" direction="ltr" dominant-baseline="text-before-edge">setSigner()</text></g><g mask="url(#mask-zc5nIAszX2U7z6nfXoPR0)" stroke-linecap="round"><g transform="translate(939 481) rotate(0 -61.75319018997254 31.636828903593084)"><path d="M0.54 0.49 C-20.03 10.9, -103.43 51.8, -124.05 62.02 M-0.63 -0.3 C-20.79 10.36, -101.32 53.02, -121.89 63.57" stroke="#1e1e1e" stroke-width="1" fill="none"></path></g><g transform="translate(939 481) rotate(0 -61.75319018997254 31.636828903593084)"><path d="M-100.84 39.67 C-106.72 46.69, -112.07 51.91, -120.96 63.44 M-101.62 42.11 C-108.2 47.8, -112.55 53.28, -121.16 64.26" stroke="#1e1e1e" stroke-width="1" fill="none"></path></g><g transform="translate(939 481) rotate(0 -61.75319018997254 31.636828903593084)"><path d="M-91.33 57.86 C-99.5 60.41, -107.22 61.11, -120.96 63.44 M-92.12 60.3 C-101.36 60.97, -108.34 61.42, -121.16 64.26" stroke="#1e1e1e" stroke-width="1" fill="none"></path></g></g><mask id="mask-zc5nIAszX2U7z6nfXoPR0"><rect x="0" y="0" fill="#fff" width="1162" height="643"></rect><rect x="870.3800048828125" y="499.5" fill="#000" width="14.239990234375" height="25" opacity="1"></rect></mask><g transform="translate(870.3800048828125 499.5) rotate(0 6.866804927214957 13.136828903593084)"><text x="7.1199951171875" y="0" font-family="Virgil, Segoe UI Emoji" font-size="20px" fill="#1e1e1e" text-anchor="middle" style="white-space: pre;" direction="ltr" dominant-baseline="text-before-edge">2</text></g><g transform="translate(836 459) rotate(0 38.40996551513672 12.5)"><text x="0" y="0" font-family="Virgil, Segoe UI Emoji" font-size="20px" fill="#1e1e1e" text-anchor="start" style="white-space: pre;" direction="ltr" dominant-baseline="text-before-edge">payment</text></g><g transform="translate(361.8000259399415 421.5) rotate(0 26.199974060058594 12.5)"><text x="26.199974060058594" y="0" font-family="Virgil, Segoe UI Emoji" font-size="20px" fill="#1971c2" text-anchor="middle" style="white-space: pre;" direction="ltr" dominant-baseline="text-before-edge">token</text></g><g mask="url(#mask-W74XG_IWgnmEBTi8_eIOb)" stroke-linecap="round"><g transform="translate(679 441) rotate(0 5.042092562094297 -90.24993514455855)"><path d="M-0.59 1.1 C1.25 -29.32, 8.99 -151.22, 10.67 -181.6 M1.31 0.63 C3.07 -29.72, 8.88 -150.28, 10.07 -180.37" stroke="#1e1e1e" stroke-width="1" fill="none"></path></g><g transform="translate(679 441) rotate(0 5.042092562094297 -90.24993514455855)"><path d="M20.89 -150.63 C15.39 -160.47, 13.68 -166.82, 9.34 -180.84 M19.71 -150.85 C15.23 -163.12, 11.38 -173.42, 10.18 -181.31" stroke="#1e1e1e" stroke-width="1" fill="none"></path></g><g transform="translate(679 441) rotate(0 5.042092562094297 -90.24993514455855)"><path d="M0.39 -151.55 C0.51 -161.04, 4.41 -167.13, 9.34 -180.84 M-0.79 -151.77 C2.79 -163.66, 7.02 -173.59, 10.18 -181.31" stroke="#1e1e1e" stroke-width="1" fill="none"></path></g></g><mask id="mask-W74XG_IWgnmEBTi8_eIOb"><rect x="0" y="0" fill="#fff" width="789" height="722"></rect><rect x="678.620002746582" y="338" fill="#000" width="10.759994506835938" height="25" opacity="1"></rect></mask><g transform="translate(678.620002746582 338) rotate(0 5.422089815512265 12.750064855441451)"><text x="5.379997253417969" y="0" font-family="Virgil, Segoe UI Emoji" font-size="20px" fill="#1e1e1e" text-anchor="middle" style="white-space: pre;" direction="ltr" dominant-baseline="text-before-edge">7</text></g><g transform="translate(709 351) rotate(0 26.739967346191406 12.5)"><text x="0" y="0" font-family="Virgil, Segoe UI Emoji" font-size="20px" fill="#1e1e1e" text-anchor="start" style="white-space: pre;" direction="ltr" dominant-baseline="text-before-edge">verify</text></g><g mask="url(#mask-gJfVioRPk_wFyR8zUYVmj)" stroke-linecap="round"><g transform="translate(1072.003582847065 527) rotate(0 -477.7732854104614 127.88948349953512)"><path d="M0.58 1.08 C-85.2 50.27, -355.62 301.8, -514.93 295.2 C-674.23 288.59, -881.85 17.23, -955.24 -38.56 M-0.57 0.6 C-86.39 49.92, -356 303.19, -515.26 296.31 C-674.52 289.43, -882.81 15.16, -956.13 -40.67" stroke="#1e1e1e" stroke-width="1" fill="none"></path></g><g transform="translate(1072.003582847065 527) rotate(0 -477.7732854104614 127.88948349953512)"><path d="M-927.05 -26.23 C-937.82 -31.93, -943.37 -35.46, -957.01 -42.35 M-928.66 -27.54 C-938 -31.82, -946.54 -36.42, -956.58 -41.47" stroke="#1e1e1e" stroke-width="1" fill="none"></path></g><g transform="translate(1072.003582847065 527) rotate(0 -477.7732854104614 127.88948349953512)"><path d="M-941.46 -11.62 C-948.2 -21.47, -949.73 -29.08, -957.01 -42.35 M-943.07 -12.93 C-947.58 -22.12, -951.33 -31.58, -956.58 -41.47" stroke="#1e1e1e" stroke-width="1" fill="none"></path></g></g><mask id="mask-gJfVioRPk_wFyR8zUYVmj"><rect x="0" y="0" fill="#fff" width="2127.00716569413" height="962"></rect><rect x="549.0966725233532" y="810.5" fill="#000" width="13.6199951171875" height="25" opacity="1"></rect></mask><g transform="translate(549.0966725233532 810.5) rotate(0 45.1336249132504 -155.61051650046488)"><text x="6.80999755859375" y="0" font-family="Virgil, Segoe UI Emoji" font-size="20px" fill="#1e1e1e" text-anchor="middle" style="white-space: pre;" direction="ltr" dominant-baseline="text-before-edge">3</text></g></svg>